<svg id="Capa_1" enable-background="new 0 0 512.018 512.018" height="512" viewBox="0 0 512.018 512.018" width="512" xmlns="http://www.w3.org/2000/svg"><g><g fill="#e20059"><path d="m159.763 503.013c-5.953 0-11.585-3.568-13.932-9.433l-16-40c-2.074-5.186-1.096-11.094 2.54-15.334l19.06-22.23c5.392-6.289 14.862-7.016 21.151-1.624s7.016 14.862 1.624 21.151l-13.146 15.332 12.625 31.563c3.942 9.853-3.339 20.575-13.922 20.575z"/><path d="m87.991 495.011c-7.2 0-13.555-5.199-14.778-12.537l-8-48c-.796-4.778.764-9.647 4.189-13.072l25.52-25.52c5.857-5.858 15.355-5.858 21.213 0s5.858 15.355 0 21.213l-20.062 20.062 6.731 40.386c1.524 9.143-5.526 17.468-14.813 17.468z"/><path d="m23.992 455.011c-7.077 0-13.375-5.029-14.726-12.238l-9-48c-1.084-5.784 1.314-11.668 6.133-15.047l53.51-37.51c6.784-4.755 16.138-3.111 20.893 3.673 4.755 6.783 3.111 16.137-3.673 20.893l-45.595 31.962 7.219 38.501c1.733 9.249-5.373 17.766-14.761 17.766z"/></g><path d="m352.254 503.013c-10.566 0-17.869-10.709-13.922-20.575l12.625-31.563-13.146-15.332c-5.392-6.29-4.665-15.759 1.624-21.151s15.758-4.666 21.151 1.624l19.06 22.23c3.635 4.24 4.613 10.148 2.539 15.334l-16 40c-2.345 5.864-7.978 9.432-13.931 9.433z" fill="#b10042"/><path d="m424.026 495.011c-9.304 0-16.334-8.346-14.813-17.468l6.731-40.386-20.062-20.062c-5.858-5.858-5.858-15.355 0-21.213 5.858-5.857 15.356-5.857 21.213 0l25.52 25.52c3.426 3.425 4.985 8.294 4.189 13.072l-8 48c-1.222 7.338-7.578 12.537-14.778 12.537z" fill="#b10042"/><path d="m488.025 455.011c-9.405.005-16.489-8.541-14.76-17.767l7.219-38.501-45.596-31.962c-6.783-4.755-8.428-14.109-3.673-20.893 4.757-6.784 14.111-8.427 20.894-3.673l53.51 37.51c4.819 3.378 7.218 9.263 6.133 15.047l-9 48c-1.352 7.209-7.651 12.239-14.727 12.239z" fill="#b10042"/><path d="m478.009 311.009c0 36.18-5.45 87.88-52.56 118.92-33.65 22.19-85.91 32.08-169.44 32.08-83.59 0-135.87-9.89-169.52-32.08-47.04-31.03-52.48-82.73-52.48-118.92 0-30.79 13.33-71.89 76.84-92.84 33.39-11.03 79.52-16.16 145.16-16.16s111.77 5.13 145.16 16.16c63.51 20.95 76.84 62.05 76.84 92.84z" fill="#de5b5b"/><path d="m478.009 311.009c0 36.18-5.45 87.88-52.56 118.92-33.65 22.19-85.91 32.08-169.44 32.08v-260c65.64 0 111.77 5.13 145.16 16.16 63.51 20.95 76.84 62.05 76.84 92.84z" fill="#e20059"/><circle cx="192.009" cy="248.009" fill="#f9f9f9" r="64"/><path d="m192.009 327.009c-43.561 0-79-35.439-79-79s35.439-79 79-79 79 35.439 79 79-35.44 79-79 79zm0-128c-27.019 0-49 21.981-49 49s21.981 49 49 49 49-21.981 49-49-21.982-49-49-49z" fill="#de5b5b"/><path d="m200.009 263.009c-8.198 0-15-6.689-15-15 0-8.637 7.418-15.769 16.47-14.93 8.492.871 14.278 8.435 13.46 16.41-.809 7.794-7.329 13.52-14.93 13.52z" fill="#393f3f"/><circle cx="320.009" cy="248.009" fill="#e7f1f9" r="64"/><path d="m320.009 169.009c-26.3 0-49.64 12.92-64 32.74v92.52c14.36 19.82 37.7 32.74 64 32.74 43.56 0 79-35.44 79-79s-35.44-79-79-79zm0 128c-27.02 0-49-21.98-49-49s21.98-49 49-49 49 21.98 49 49-21.98 49-49 49z" fill="#e20059"/><path d="m312.009 263.009c-8.233 0-15-6.732-15-15 0-8.599 7.367-15.766 16.479-14.93 8.49.889 14.262 8.418 13.45 16.41-.807 7.784-7.32 13.52-14.929 13.52z" fill="#393f3f"/><path d="m74.525 280.285-58.31-35.46c-6.251-3.802-8.848-11.559-6.145-18.357l34.17-85.96c3.06-7.699 11.781-11.458 19.48-8.398 7.698 3.06 11.458 11.782 8.398 19.48l-29.49 74.186 47.485 28.876c7.078 4.305 9.327 13.532 5.022 20.61-4.297 7.066-13.52 9.334-20.61 5.023z" fill="#e20059"/><path d="m154.958 63.797c-2.307-8.056-10.767-12.656-18.777-10.226l-45.931 13.941-14.498-47.852c-2.376-7.843-10.608-12.328-18.484-10.072-41.879 11.988-66.197 55.811-54.209 97.69 11.972 41.822 55.756 66.213 97.69 54.209 41.879-11.987 66.197-55.811 54.209-97.69z" fill="#de5b5b"/><path d="m416.883 275.263c-4.305-7.078-2.056-16.306 5.022-20.61l47.484-28.876-29.49-74.186c-3.06-7.698.7-16.42 8.398-19.48 7.703-3.061 16.421.701 19.48 8.398l34.17 85.96c2.702 6.799.105 14.556-6.146 18.357l-58.31 35.46c-7.077 4.304-16.304 2.054-20.608-5.023z" fill="#b10042"/><path d="m454.749 9.588c-7.878-2.254-16.107 2.229-18.483 10.072l-14.497 47.852-45.933-13.94c-8.018-2.434-16.473 2.179-18.777 10.226-11.987 41.879 12.331 85.702 54.21 97.69 42.04 12.033 85.749-12.493 97.69-54.209 11.987-41.88-12.331-85.703-54.21-97.691z" fill="#e20059"/></g></svg>