<svg id="Capa_1" enable-background="new 0 0 512.055 512.055" height="512" viewBox="0 0 512.055 512.055" width="512" xmlns="http://www.w3.org/2000/svg"><g><path d="m497.055 143.024h-112.95c-8.284 0-15-6.716-15-15s6.716-15 15-15h112.95c8.284 0 15 6.716 15 15s-6.716 15-15 15z" fill="#f2d131"/><path d="m302.095 277.294c-3.229 8.617-13.428 12.329-21.46 7.77-.62-.36-43.05-21.32-95.91-29.04-19.41-2.84-40.23-3.89-60.9-1.48-17.695 2.056-23.273-14.992-15.06-24.4l56-64c2.85-3.25 6.96-5.12 11.29-5.12h40c26.09 0 60.84 12.15 79.66 39.31 15.973 23.05 16.418 50.18 6.38 76.96z" fill="#6aa6fb"/><path d="m307.785 256.024c-1.03 6.62-2.86 13.72-5.69 21.27-3.229 8.617-13.428 12.329-21.46 7.77-.62-.36-43.05-21.32-95.91-29.04z" fill="#4880fa"/><path d="m393.465 139.744-31.84 25.44c-7.92 6.34-17.9 9.84-28.08 9.84h-69.49c-16.02 0-31.5 4.66-44.77 13.49-.35.23-.7.44-1.06.64-35.64 19.68-35.21 45.51-35.19 45.76.029.801.02-1.255.02 21.11 0 43.31 34.17 78.79 76.96 80.9 9.56-5.64 32.33-16.7 57.34-11.87 19.1 3.69 35.04 15.45 47.38 34.95 2.71 4.29 3.07 9.66.95 14.28-.88 1.91-19.51 41.56-58.59 53.49 7.28 39.82-13.14 75.17-14.14 76.86-3.1 5.285-9.021 8.014-14.78 7.27-43.765-5.471-69.215-37.804-75.72-81.3-100.781-6.204-181.029-81.117-198.68-174.58-25.512-135.305 81.759-257.447 216.78-255.98 92.534.994 151.677 33.477 177.95 123.79 1.7 5.83-.29 12.12-5.04 15.91z" fill="#93c5ec"/><path d="m365.685 374.284c-.88 1.91-19.51 41.56-58.59 53.49 7.28 39.82-13.14 75.17-14.14 76.86-3.1 5.285-9.021 8.014-14.78 7.27-43.765-5.471-69.215-37.804-75.72-81.3-100.781-6.204-181.029-81.117-198.68-174.58h179.28c0 43.31 34.17 78.79 76.96 80.9 9.56-5.64 32.33-16.7 57.34-11.87 19.1 3.69 35.04 15.45 47.38 34.95 2.71 4.29 3.07 9.66.95 14.28z" fill="#6aa6fb"/><path d="m304.055 111.024c-8.199 0-15-6.691-15-15 0-8.587 7.354-15.767 16.48-14.93 8.549.896 14.262 8.491 13.45 16.41-.814 7.847-7.378 13.52-14.93 13.52z" fill="#25429a"/></g></svg>