<svg id="Layer_1" enable-background="new 0 0 511.908 511.908" height="512" viewBox="0 0 511.908 511.908" width="512" xmlns="http://www.w3.org/2000/svg"><g><path d="m270.954 351.851h-15-15c0 46.683-37.979 84.662-84.662 84.662h-33.953c5.405 8.933 11.729 17.374 18.935 25.177 29.474 31.915 71.273 50.219 114.681 50.219s85.207-18.304 114.681-50.219c7.206-7.803 13.53-16.244 18.935-25.177h-33.953c-46.684 0-84.664-37.98-84.664-84.662z" fill="#8c4a50"/><path d="m355.616 436.513c-46.683 0-84.662-37.979-84.662-84.662h-15v160.058c43.407 0 85.207-18.304 114.681-50.219 7.206-7.803 13.53-16.244 18.935-25.177z" fill="#66333e"/><g><path d="m50.325 350.078-21.213-21.213 24.828-24.83h60.936v30h-48.508z" fill="#60382c"/></g><g><path d="m114.794 482.297h-30v-38.411l37.79-31.71 19.283 22.98-27.073 22.718z" fill="#60382c"/></g><g><path d="m124.096 227.163-29.762-24.973h-25.957v-30h36.877l38.125 31.991z" fill="#60382c"/></g><g><path d="m461.583 350.078-16.043-16.043h-48.508v-30h60.936l24.828 24.83z" fill="#60382c"/></g><g><path d="m427.114 482.297h-30v-24.423l-27.073-22.718 19.283-22.98 37.79 31.71z" fill="#60382c"/></g><g><path d="m387.813 227.163-19.284-22.982 38.125-31.991h36.877v30h-25.957z" fill="#60382c"/></g><g><path d="m461.583 350.078-16.043-16.043h-48.508v-30h60.936l24.828 24.83z" fill="#3c1b13"/></g><g><path d="m427.114 482.297h-30v-24.423l-27.073-22.718 19.283-22.98 37.79 31.71z" fill="#3c1b13"/></g><g><path d="m387.813 227.163-19.284-22.982 38.125-31.991h36.877v30h-25.957z" fill="#3c1b13"/></g><g><path d="m302.371 73.007h-30v-22.077c0-28.083 22.848-50.93 50.931-50.93v30c-11.541 0-20.931 9.389-20.931 20.93z" fill="#60382c"/></g><g><path d="m302.371 73.007h-30v-22.077c0-28.083 22.848-50.93 50.931-50.93v30c-11.541 0-20.931 9.389-20.931 20.93z" fill="#3c1b13"/></g><g><path d="m239.537 73.007h-30v-22.077c0-11.541-9.39-20.93-20.931-20.93v-30c28.083 0 50.931 22.847 50.931 50.93z" fill="#60382c"/></g><path d="m255.954 49.774c-43.559 0-78.996 35.438-78.996 78.996v46.658h157.992v-46.658c0-43.558-35.437-78.996-78.996-78.996z" fill="#8c4a50"/><path d="m334.95 128.771c0-43.559-35.438-78.996-78.996-78.996v125.654h78.996z" fill="#66333e"/><path d="m255.954 130.111c-86.062 0-156.078 70.016-156.078 156.077v69.643c0 39.356 14.702 76.951 41.397 105.858l4.454 4.823h10.564c42.634 0 79.905-23.386 99.662-58.006 19.757 34.62 57.028 58.006 99.662 58.006h10.564l4.454-4.823c26.695-28.907 41.397-66.502 41.397-105.858v-69.643c.002-86.061-70.014-156.077-156.076-156.077z" fill="#ff415b"/><path d="m255.954 130.111v278.396c19.757 34.62 57.028 58.006 99.662 58.006h10.564l4.454-4.823c26.695-28.907 41.397-66.502 41.397-105.858v-69.643c.001-86.062-70.015-156.078-156.077-156.078z" fill="#e50058"/><g><path d="m319.197 317.188h30v30.002h-30z" fill="#60382c"/></g><g><path d="m303.789 252.938h30v30.002h-30z" fill="#60382c"/></g><g><path d="m162.71 317.188h30v30.002h-30z" fill="#60382c"/></g><g><path d="m178.119 252.938h30v30.002h-30z" fill="#60382c"/></g><g><path d="m319.197 317.188h30v30.002h-30z" fill="#3c1b13"/></g><g><path d="m303.789 252.938h30v30.002h-30z" fill="#3c1b13"/></g></g></svg>