<svg id="Capa_1" enable-background="new 0 0 512 512" height="512" viewBox="0 0 512 512" width="512" xmlns="http://www.w3.org/2000/svg"><g><path d="m512 256c0 111.961-71.874 207.136-172 241.9-2.958 1.027-137.882-139.9-238.635-139.9-26.115 0-76.98 7.208-77.906 5.202-15.058-32.61-23.459-68.925-23.459-107.202 0-141.385 114.615-256 256-256s256 114.615 256 256z" fill="#07a9f0"/><path d="m450.44 294.848c0 102.173-82.827 185-185 185s-185-82.827-185-185 82.827-185 185-185 185 82.827 185 185z" fill="#72d1fb"/><path d="m471.586 313.766c-5.071 47.362-24.603 88.885-56.485 120.08-59.691 58.405-136.353 57.572-158.427 55.925-.346-.025-.689-.063-1.028-.111-7.742-1.11-13.405-8.047-12.815-15.963.616-8.262 7.813-14.459 16.074-13.843 18.902 1.411 84.516 2.156 135.214-47.45 27.227-26.64 43.254-60.901 47.636-101.831 3.438-32.115-1.784-56.894-2.391-59.614-9.961-44.64-39.939-85.445-84.412-114.9-41.289-27.346-89.774-40.508-129.694-35.208-33.241 4.414-62.514 22.042-88.341 37.596-21.748 13.096-42.733 25.734-63.711 28.971-12.181 1.879-24.361.59-36.686-5.621-15.265-7.692-27.148-21.329-35.32-40.534-3.244-7.624.306-16.432 7.929-19.675 7.624-3.242 16.432.306 19.676 7.929 5.319 12.5 12.457 21.076 21.216 25.49 8.301 4.183 17.267 3.912 27.768.449 12.078-3.983 26.187-12.191 43.653-22.709 28.332-17.062 60.444-36.399 99.869-41.634 46.899-6.226 103.051 8.701 150.208 39.935 50.974 33.761 85.468 81.129 97.127 133.379 1.169 5.241 6.807 33.218 2.94 69.339z" fill="#e4ab45"/><path d="m416.964 455.075c-11.337 9.179-23.475 17.408-36.291 24.568l-68.34-189.643 57.667-40z" fill="#b9801b"/><path d="m340 497.9c-26.313 9.136-54.577 14.1-84 14.1-4.081 0-8.14-.095-12.174-.284-3.643-.171-9.058-5.561-12.659-5.882-69.35-6.187-125.339-38.443-167.667-88.834-3.424-4.076-10.333-4.701-13.501-8.987-10.292-13.924-19.206-28.928-26.54-44.811 18.021-98.526 104.31-173.202 208.041-173.202h108.5z" fill="#c88a1d"/><path d="m50 408.014c-10.292-13.924-19.207-28.929-26.541-44.813 18.021-98.525 104.31-173.201 208.041-173.201h83.835c-63.681 0-121.604 24.648-164.751 64.924-42.693 39.852-57.562 97.356-45.726 149.776 7.547 33.423-26.797 41.277-54.858 3.314z" fill="#b9801b"/><path d="m243.894 506.871c.164 1.653.134 3.277-.068 4.845-79.462-3.721-149.452-43.669-193.826-103.701v-33.015c0-31.48 25.52-57 57-57 31.48 0 57 25.52 57 57v98c0 8.284 6.716 15 15 15h43.608c10.847 0 20.214 8.077 21.286 18.871z" fill="#df9d28"/><path d="m243.826 511.715c-49.818-2.333-95.913-18.905-134.307-45.738v-147.922c30.311 1.318 54.481 26.309 54.481 56.945v98c0 8.284 6.716 15 15 15h43.608c10.846 0 20.214 8.078 21.286 18.871.164 1.653.134 3.277-.068 4.844z" fill="#eac23f"/><path d="m426.949 473.17c-2.728 13.535-15.912 22.295-29.447 19.567l-137.24-27.662c-12.27-2.473-20.616-13.539-20.037-25.669-.019-.396-.028-131.195-.028-131.195 0-13.807 11.193-25 25-25s25 11.193 25 25v111.893l117.185 23.62c13.535 2.727 22.295 15.911 19.567 29.446z" fill="#df9d28"/><path d="m407.305 494.713-49.014-9.879c-13.535-2.728-22.296-15.912-19.568-29.447 2.728-13.535 15.912-22.296 29.447-19.568l49.014 9.879c13.535 2.728 22.296 15.912 19.568 29.447-2.728 13.536-15.912 22.296-29.447 19.568z" fill="#eac23f"/><path d="m445 140c0 77.32-62.68 140-140 140s-140-62.68-140-140c0-13.331 1.864-26.227 5.344-38.441-17.657-6.08-30.344-22.837-30.344-42.559 0-24.853 20.147-45 45-45 13.577 0 25.75 6.013 34 15.521 23.732-18.5 53.579-29.521 86-29.521 77.32 0 140 62.68 140 140z" fill="#c88a1d"/><path d="m439.656 101.559c3.48 12.214 5.344 25.11 5.344 38.441 0 67.907-48.348 124.522-112.5 137.3-99.392-17.148-112.5-69.393-112.5-137.3s48.348-124.522 112.5-137.3c21.736 4.33 41.658 13.692 58.5 26.821 8.25-9.508 20.423-15.521 34-15.521 24.853 0 45 20.147 45 45 0 19.722-12.687 36.479-30.344 42.559z" fill="#df9d28"/><path d="m410 119c0 30.375-24.624 55-55 55-22.186 0-41.304-13.136-50-32.055-8.696 18.919-27.814 32.055-50 32.055-30.376 0-55-24.625-55-55s24.624-55 55-55c22.186 0 41.304 13.136 50 32.055 8.696-18.919 27.814-32.055 50-32.055 30.376 0 55 24.625 55 55z" fill="#eac23f"/><path d="m305 254c-26.424 0-48.573-18.301-54.464-42.92-.207-.867 2.256-1.886 2.089-2.768-.64-3.388-1.625-7.489-1.625-11.063l-2-3.174v-14.075c0-30.928 25.072-56 56-56 30.928 0 56 25.072 56 56v14.076l-3.833 4.491c0 3.141-.259 6.221-.756 9.221-.216 1.302 3.357 2.022 3.053 3.292-5.891 24.619-28.04 42.92-54.464 42.92z" fill="#edd578"/><path d="m270 114c0 11.046-8.954 20-20 20s-20-8.954-20-20 8.954-20 20-20 20 8.954 20 20zm90-20c-11.046 0-20 8.954-20 20s8.954 20 20 20 20-8.954 20-20-8.954-20-20-20z" fill="#3f4a4a"/><path d="m205 64c0 11.046-8.954 20-20 20s-20-8.954-20-20 8.954-20 20-20 20 8.954 20 20zm220-20c-11.046 0-20 8.954-20 20s8.954 20 20 20 20-8.954 20-20-8.954-20-20-20z" fill="#b9801b"/><path d="m361 194.076v3.924c0 4.504-.532 8.884-1.536 13.08-16.858 6.722-35.237 10.42-54.464 10.42s-37.606-3.698-54.464-10.42c-1.004-4.196-1.536-8.576-1.536-13.08v-3.924c17.019 7.969 35.999 12.424 56 12.424s38.981-4.455 56-12.424zm-69.75-26.02c4.142 0 7.5-3.358 7.5-7.5v-15c0-4.142-3.358-7.5-7.5-7.5s-7.5 3.358-7.5 7.5v15c0 4.142 3.358 7.5 7.5 7.5zm27.5 0c4.142 0 7.5-3.358 7.5-7.5v-15c0-4.142-3.358-7.5-7.5-7.5s-7.5 3.358-7.5 7.5v15c0 4.142 3.358 7.5 7.5 7.5z" fill="#c88a1d"/><path d="m267.89 104c0 5.216-4.229 9.445-9.445 9.445s-9.445-4.229-9.445-9.445 4.229-9.445 9.445-9.445 9.445 4.229 9.445 9.445zm101.555-9.445c-5.216 0-9.445 4.229-9.445 9.445s4.229 9.445 9.445 9.445 9.445-4.229 9.445-9.445-4.229-9.445-9.445-9.445z" fill="#fff5f5"/></g></svg>