<svg id="Capa_1" enable-background="new 0 0 512 512" height="512" viewBox="0 0 512 512" width="512" xmlns="http://www.w3.org/2000/svg"><g><path d="m267 491c-8.284 0-15-6.716-15-15v-40c0-8.284 6.716-15 15-15s15 6.716 15 15v40c0 8.284-6.716 15-15 15z" fill="#ffea98"/><g fill="#ffd845"><path d="m282 476v-40c0-8.284-6.716-15-15-15v70c8.284 0 15-6.716 15-15z"/><path d="m35.01 341.002c-5.035 0-9.922-2.539-12.746-7.077-18.401-29.574-22.264-58.699-22.264-77.925 0-34.829 12.107-61.6 22.264-77.924 4.092-6.576 12.518-8.958 19.444-5.492l56.836 28.418c5.07 2.534 8.278 7.711 8.292 13.379l.203 83.062c.014 5.695-3.198 10.907-8.292 13.454l-57.039 28.519c-2.146 1.073-4.437 1.586-6.698 1.586z"/><path d="m205.437 101.859c-6.127 0-11.879-3.782-14.096-9.873l-13.681-37.588c-2.833-7.785 1.18-16.393 8.965-19.227 7.784-2.833 16.392 1.181 19.226 8.965l13.681 37.588c2.833 7.785-1.18 16.393-8.965 19.227-1.693.616-3.426.908-5.13.908z"/><path d="m151.306 133.112c-4.281 0-8.531-1.822-11.499-5.358l-25.711-30.642c-5.325-6.346-4.497-15.808 1.849-21.132 6.346-5.325 15.807-4.498 21.132 1.849l25.711 30.642c5.325 6.346 4.497 15.808-1.849 21.132-2.809 2.358-6.231 3.509-9.633 3.509z"/><path d="m111.101 181.003c-2.545 0-5.124-.648-7.486-2.013l-34.641-20c-7.174-4.142-9.632-13.316-5.49-20.49 4.142-7.176 13.316-9.635 20.49-5.49l34.641 20c7.174 4.142 9.632 13.316 5.49 20.49-2.778 4.812-7.82 7.503-13.004 7.503z"/></g><path d="m422.898 181.003c-5.184 0-10.226-2.69-13.004-7.503-4.143-7.174-1.685-16.349 5.49-20.49l34.641-20c7.175-4.144 16.348-1.686 20.49 5.49 4.143 7.174 1.685 16.349-5.49 20.49l-34.641 20c-2.362 1.364-4.941 2.013-7.486 2.013z" fill="#ff9d21"/><path d="m382.694 133.112c-3.402 0-6.823-1.151-9.634-3.509-6.347-5.325-7.174-14.787-1.85-21.133l25.711-30.642c5.325-6.348 14.786-7.173 21.133-1.85 6.347 5.325 7.174 14.787 1.85 21.133l-25.711 30.642c-2.966 3.537-7.218 5.359-11.499 5.359z" fill="#ff9d21"/><path d="m328.562 101.859c-1.703 0-3.436-.292-5.129-.908-7.785-2.834-11.799-11.441-8.966-19.226l13.681-37.588c2.834-7.785 11.439-11.799 19.226-8.966 7.785 2.834 11.799 11.441 8.966 19.226l-13.681 37.588c-2.218 6.092-7.97 9.874-14.097 9.874z" fill="#ff9d21"/><path d="m267 91c-8.284 0-15-6.716-15-15v-40c0-8.284 6.716-15 15-15s15 6.716 15 15v40c0 8.284-6.716 15-15 15z" fill="#ffd845"/><path d="m282 76v-40c0-8.284-6.716-15-15-15v70c8.284 0 15-6.716 15-15z" fill="#ff9d21"/><path d="m342.245 477.736c-6.128 0-11.879-3.782-14.097-9.874l-13.681-37.588c-2.833-7.784 1.181-16.392 8.966-19.226 7.781-2.835 16.392 1.181 19.226 8.966l13.681 37.588c2.833 7.784-1.181 16.392-8.966 19.226-1.692.616-3.426.908-5.129.908z" fill="#ffd845"/><path d="m408.421 439.529c-4.281 0-8.531-1.822-11.499-5.358l-25.711-30.642c-5.324-6.346-4.497-15.808 1.85-21.133 6.346-5.323 15.807-4.497 21.133 1.85l25.711 30.642c5.324 6.346 4.497 15.808-1.85 21.133-2.81 2.357-6.232 3.508-9.634 3.508z" fill="#ffd845"/><path d="m457.512 381.003c-2.545 0-5.124-.648-7.486-2.013l-34.641-20c-7.175-4.142-9.633-13.316-5.49-20.49 4.142-7.175 13.315-9.635 20.49-5.49l34.641 20c7.175 4.142 9.633 13.316 5.49 20.49-2.779 4.812-7.821 7.503-13.004 7.503z" fill="#ffd845"/><path d="m76.489 381.003c-5.185 0-10.226-2.69-13.004-7.503-4.142-7.174-1.684-16.349 5.49-20.49l34.641-20c7.174-4.144 16.349-1.684 20.49 5.49 4.142 7.174 1.684 16.349-5.49 20.49l-34.641 20c-2.362 1.364-4.942 2.013-7.486 2.013z" fill="#ffea98"/><path d="m125.579 439.529c-3.403 0-6.824-1.151-9.634-3.51-6.346-5.324-7.174-14.786-1.849-21.132l25.711-30.642c5.325-6.347 14.787-7.175 21.132-1.849 6.346 5.324 7.174 14.786 1.849 21.132l-25.711 30.642c-2.966 3.537-7.217 5.359-11.498 5.359z" fill="#ffea98"/><path d="m191.754 477.736c-1.704 0-3.436-.292-5.129-.908-7.785-2.834-11.798-11.441-8.965-19.227l13.681-37.588c2.834-7.784 11.441-11.797 19.226-8.965 7.785 2.834 11.798 11.441 8.965 19.227l-13.681 37.588c-2.217 6.09-7.97 9.873-14.097 9.873z" fill="#ffea98"/><path d="m77.251 301c20.369 85.9 97.71 150 189.749 150s169.38-64.1 189.75-150c0-8.284-6.716-15-15-15h-349.499c-8.285 0-15 6.716-15 15z" fill="#f4f4f6"/><path d="m441.75 286h-174.75v165c92.039 0 169.38-64.1 189.75-150 0-8.284-6.716-15-15-15z" fill="#e2dff4"/><path d="m227 381c-3.635 0-7.17-1.321-9.927-3.755-3.225-2.848-5.073-6.942-5.073-11.245v-80c0-8.284 6.716-15 15-15h80c8.284 0 15 6.716 15 15 0 47.456-35.51 87.681-82.599 93.566l-10.541 1.317c-.62.079-1.242.117-1.86.117z" fill="#ffd845"/><path d="m307 271h-40v100.687c32.69-15.035 55-48.08 55-85.687 0-8.284-6.716-15-15-15z" fill="#ff9d21"/><path d="m482 301h-404.688c-3.585-16.712-5.312-31.217-5.312-45 0-107.523 87.477-195 195-195 102.477 0 186.744 79.458 194.429 180h20.571c16.569 0 30 13.431 30 30 0 16.569-13.431 30-30 30z" fill="#ffea98"/><path d="m482 301c16.569 0 30-13.431 30-30 0-16.568-13.431-30-30-30h-20.571c-7.685-100.542-91.952-180-194.429-180v240z" fill="#ffd845"/><circle cx="377" cy="226" fill="#002659" r="15"/><circle cx="282" cy="136" fill="#ff9d21" r="15"/><circle cx="282" cy="196" fill="#ff9d21" r="15"/><circle cx="222" cy="166" fill="#ffd845" r="15"/><circle cx="162" cy="196" fill="#ffd845" r="15"/><circle cx="222" cy="226" fill="#ffd845" r="15"/></g></svg>